<svg xmlns="http://www.w3.org/2000/svg" viewBox="0 0 120 360" role="img" aria-labelledby="title desc">
  <title id="title">DAO fu paper slip outline with three pure marks</title>
  <desc id="desc">Reference contour for a long narrow Daoist fu paper slip. Decorative draft only, not a ritual formula.</desc>
  <g fill="none" stroke="currentColor" stroke-width="2.2" stroke-linecap="round" stroke-linejoin="round">
    <rect x="23" y="14" width="74" height="332" rx="1.5" />
    <rect x="28" y="20" width="64" height="320" rx="1" />
    <path d="M28 50h64" />
    <path d="M38 25c-6 0-8 5-10 9" />
    <path d="M82 25c6 0 8 5 10 9" />
    <path d="M40 34c-5 0-7 4-9 8" />
    <path d="M80 34c5 0 7 4 9 8" />
    <path d="M40 38l5 6 10-13" />
    <path d="M56 38l5 6 10-13" />
    <path d="M72 38l5 6 10-13" />
    <path d="M34 66q6 0 6-6h40q0 6 6 6" />
    <path d="M34 326q6 0 6 6h40q0-6 6-6" />
    <path d="M47 335h26" />
  </g>
</svg>
